<?xml version="1.0" encoding="UTF-8"?>
<svg xmlns="http://www.w3.org/2000/svg" xmlns:xlink="http://www.w3.org/1999/xlink" width="3872.97" height="3872.97" viewBox="0 0 3872.97 3872.97">
<defs>
<clipPath id="clip-0">
<path clip-rule="nonzero" d="M 0 0 L 3872.96875 0 L 3872.96875 3872.96875 L 0 3872.96875 Z M 0 0 "/>
</clipPath>
<clipPath id="clip-1">
<path clip-rule="evenodd" d="M 859.636719 0 L 3013.328125 0 C 3486.121094 0 3872.96875 386.839844 3872.96875 859.628906 L 3872.96875 3013.328125 C 3872.96875 3486.121094 3486.121094 3872.96875 3013.328125 3872.96875 L 859.636719 3872.96875 C 386.839844 3872.96875 0 3486.121094 0 3013.328125 L 0 859.628906 C 0 386.839844 386.839844 0 859.636719 0 "/>
</clipPath>
<linearGradient id="linear-pattern-0" gradientUnits="userSpaceOnUse" x1="0" y1="0" x2="1" y2="0" gradientTransform="matrix(3872.97, 0, 0, 3872.97, 0, 1936.49)">
<stop offset="0" stop-color="rgb(0%, 16.470337%, 22.3526%)" stop-opacity="1"/>
<stop offset="0.0078125" stop-color="rgb(0%, 16.610718%, 22.494507%)" stop-opacity="1"/>
<stop offset="0.015625" stop-color="rgb(0%, 16.891479%, 22.77832%)" stop-opacity="1"/>
<stop offset="0.0234375" stop-color="rgb(0%, 17.173767%, 23.06366%)" stop-opacity="1"/>
<stop offset="0.03125" stop-color="rgb(0%, 17.456055%, 23.348999%)" stop-opacity="1"/>
<stop offset="0.0390625" stop-color="rgb(0%, 17.738342%, 23.634338%)" stop-opacity="1"/>
<stop offset="0.046875" stop-color="rgb(0%, 18.019104%, 23.918152%)" stop-opacity="1"/>
<stop offset="0.0546875" stop-color="rgb(0%, 18.301392%, 24.203491%)" stop-opacity="1"/>
<stop offset="0.0625" stop-color="rgb(0%, 18.583679%, 24.488831%)" stop-opacity="1"/>
<stop offset="0.0703125" stop-color="rgb(0%, 18.864441%, 24.77417%)" stop-opacity="1"/>
<stop offset="0.078125" stop-color="rgb(0%, 19.146729%, 25.057983%)" stop-opacity="1"/>
<stop offset="0.0859375" stop-color="rgb(0%, 19.429016%, 25.343323%)" stop-opacity="1"/>
<stop offset="0.09375" stop-color="rgb(0%, 19.711304%, 25.628662%)" stop-opacity="1"/>
<stop offset="0.101562" stop-color="rgb(0%, 19.992065%, 25.912476%)" stop-opacity="1"/>
<stop offset="0.109375" stop-color="rgb(0%, 20.274353%, 26.197815%)" stop-opacity="1"/>
<stop offset="0.117188" stop-color="rgb(0%, 20.556641%, 26.483154%)" stop-opacity="1"/>
<stop offset="0.125" stop-color="rgb(0%, 20.837402%, 26.768494%)" stop-opacity="1"/>
<stop offset="0.132812" stop-color="rgb(0%, 21.11969%, 27.052307%)" stop-opacity="1"/>
<stop offset="0.140625" stop-color="rgb(0%, 21.401978%, 27.337646%)" stop-opacity="1"/>
<stop offset="0.148437" stop-color="rgb(0%, 21.684265%, 27.622986%)" stop-opacity="1"/>
<stop offset="0.15625" stop-color="rgb(0%, 21.965027%, 27.908325%)" stop-opacity="1"/>
<stop offset="0.164062" stop-color="rgb(0%, 22.247314%, 28.192139%)" stop-opacity="1"/>
<stop offset="0.171875" stop-color="rgb(0%, 22.529602%, 28.477478%)" stop-opacity="1"/>
<stop offset="0.179687" stop-color="rgb(0%, 22.81189%, 28.762817%)" stop-opacity="1"/>
<stop offset="0.1875" stop-color="rgb(0%, 23.092651%, 29.046631%)" stop-opacity="1"/>
<stop offset="0.195312" stop-color="rgb(0%, 23.374939%, 29.33197%)" stop-opacity="1"/>
<stop offset="0.203125" stop-color="rgb(0%, 23.657227%, 29.61731%)" stop-opacity="1"/>
<stop offset="0.210938" stop-color="rgb(0%, 23.937988%, 29.902649%)" stop-opacity="1"/>
<stop offset="0.21875" stop-color="rgb(0%, 24.220276%, 30.186462%)" stop-opacity="1"/>
<stop offset="0.226562" stop-color="rgb(0%, 24.502563%, 30.471802%)" stop-opacity="1"/>
<stop offset="0.234375" stop-color="rgb(0%, 24.784851%, 30.757141%)" stop-opacity="1"/>
<stop offset="0.242188" stop-color="rgb(0%, 25.065613%, 31.04248%)" stop-opacity="1"/>
<stop offset="0.25" stop-color="rgb(0%, 25.3479%, 31.326294%)" stop-opacity="1"/>
<stop offset="0.257812" stop-color="rgb(0%, 25.630188%, 31.611633%)" stop-opacity="1"/>
<stop offset="0.265625" stop-color="rgb(0%, 25.91095%, 31.896973%)" stop-opacity="1"/>
<stop offset="0.273437" stop-color="rgb(0%, 26.193237%, 32.180786%)" stop-opacity="1"/>
<stop offset="0.28125" stop-color="rgb(0%, 26.475525%, 32.466125%)" stop-opacity="1"/>
<stop offset="0.289062" stop-color="rgb(0%, 26.757812%, 32.751465%)" stop-opacity="1"/>
<stop offset="0.296875" stop-color="rgb(0%, 27.038574%, 33.036804%)" stop-opacity="1"/>
<stop offset="0.304687" stop-color="rgb(0%, 27.320862%, 33.320618%)" stop-opacity="1"/>
<stop offset="0.3125" stop-color="rgb(0%, 27.603149%, 33.605957%)" stop-opacity="1"/>
<stop offset="0.320312" stop-color="rgb(0%, 27.885437%, 33.891296%)" stop-opacity="1"/>
<stop offset="0.328125" stop-color="rgb(0%, 28.166199%, 34.176636%)" stop-opacity="1"/>
<stop offset="0.335937" stop-color="rgb(0%, 28.448486%, 34.460449%)" stop-opacity="1"/>
<stop offset="0.34375" stop-color="rgb(0%, 28.730774%, 34.745789%)" stop-opacity="1"/>
<stop offset="0.351562" stop-color="rgb(0%, 29.011536%, 35.031128%)" stop-opacity="1"/>
<stop offset="0.359375" stop-color="rgb(0%, 29.293823%, 35.316467%)" stop-opacity="1"/>
<stop offset="0.367187" stop-color="rgb(0%, 29.576111%, 35.600281%)" stop-opacity="1"/>
<stop offset="0.375" stop-color="rgb(0%, 29.858398%, 35.88562%)" stop-opacity="1"/>
<stop offset="0.382812" stop-color="rgb(0%, 30.13916%, 36.170959%)" stop-opacity="1"/>
<stop offset="0.390625" stop-color="rgb(0%, 30.421448%, 36.454773%)" stop-opacity="1"/>
<stop offset="0.398438" stop-color="rgb(0%, 30.703735%, 36.740112%)" stop-opacity="1"/>
<stop offset="0.40625" stop-color="rgb(0%, 30.984497%, 37.025452%)" stop-opacity="1"/>
<stop offset="0.414062" stop-color="rgb(0%, 31.266785%, 37.310791%)" stop-opacity="1"/>
<stop offset="0.421875" stop-color="rgb(0%, 31.549072%, 37.594604%)" stop-opacity="1"/>
<stop offset="0.429688" stop-color="rgb(0%, 31.83136%, 37.879944%)" stop-opacity="1"/>
<stop offset="0.4375" stop-color="rgb(0%, 32.112122%, 38.165283%)" stop-opacity="1"/>
<stop offset="0.445312" stop-color="rgb(0%, 32.394409%, 38.450623%)" stop-opacity="1"/>
<stop offset="0.453125" stop-color="rgb(0%, 32.676697%, 38.734436%)" stop-opacity="1"/>
<stop offset="0.460938" stop-color="rgb(0%, 32.958984%, 39.019775%)" stop-opacity="1"/>
<stop offset="0.46875" stop-color="rgb(0%, 33.239746%, 39.305115%)" stop-opacity="1"/>
<stop offset="0.476562" stop-color="rgb(0%, 33.522034%, 39.588928%)" stop-opacity="1"/>
<stop offset="0.484375" stop-color="rgb(0%, 33.804321%, 39.874268%)" stop-opacity="1"/>
<stop offset="0.492188" stop-color="rgb(0%, 34.085083%, 40.159607%)" stop-opacity="1"/>
<stop offset="0.5" stop-color="rgb(0%, 34.367371%, 40.444946%)" stop-opacity="1"/>
<stop offset="0.507812" stop-color="rgb(0%, 34.649658%, 40.72876%)" stop-opacity="1"/>
<stop offset="0.515625" stop-color="rgb(0%, 34.931946%, 41.014099%)" stop-opacity="1"/>
<stop offset="0.523437" stop-color="rgb(0%, 35.212708%, 41.299438%)" stop-opacity="1"/>
<stop offset="0.53125" stop-color="rgb(0%, 35.494995%, 41.584778%)" stop-opacity="1"/>
<stop offset="0.539062" stop-color="rgb(0%, 35.777283%, 41.868591%)" stop-opacity="1"/>
<stop offset="0.546875" stop-color="rgb(0%, 36.058044%, 42.153931%)" stop-opacity="1"/>
<stop offset="0.554687" stop-color="rgb(0%, 36.340332%, 42.43927%)" stop-opacity="1"/>
<stop offset="0.5625" stop-color="rgb(0%, 36.62262%, 42.723083%)" stop-opacity="1"/>
<stop offset="0.570312" stop-color="rgb(0%, 36.904907%, 43.008423%)" stop-opacity="1"/>
<stop offset="0.578125" stop-color="rgb(0%, 37.185669%, 43.293762%)" stop-opacity="1"/>
<stop offset="0.585937" stop-color="rgb(0%, 37.467957%, 43.579102%)" stop-opacity="1"/>
<stop offset="0.59375" stop-color="rgb(0%, 37.750244%, 43.862915%)" stop-opacity="1"/>
<stop offset="0.601562" stop-color="rgb(0%, 38.031006%, 44.148254%)" stop-opacity="1"/>
<stop offset="0.609375" stop-color="rgb(0%, 38.313293%, 44.433594%)" stop-opacity="1"/>
<stop offset="0.617187" stop-color="rgb(0%, 38.595581%, 44.718933%)" stop-opacity="1"/>
<stop offset="0.625" stop-color="rgb(0%, 38.877869%, 45.002747%)" stop-opacity="1"/>
<stop offset="0.632812" stop-color="rgb(0%, 39.15863%, 45.288086%)" stop-opacity="1"/>
<stop offset="0.640625" stop-color="rgb(0%, 39.440918%, 45.573425%)" stop-opacity="1"/>
<stop offset="0.648437" stop-color="rgb(0%, 39.723206%, 45.858765%)" stop-opacity="1"/>
<stop offset="0.65625" stop-color="rgb(0%, 40.005493%, 46.142578%)" stop-opacity="1"/>
<stop offset="0.664062" stop-color="rgb(0%, 40.286255%, 46.427917%)" stop-opacity="1"/>
<stop offset="0.671875" stop-color="rgb(0%, 40.568542%, 46.713257%)" stop-opacity="1"/>
<stop offset="0.679687" stop-color="rgb(0%, 40.85083%, 46.99707%)" stop-opacity="1"/>
<stop offset="0.6875" stop-color="rgb(0%, 41.131592%, 47.28241%)" stop-opacity="1"/>
<stop offset="0.695312" stop-color="rgb(0%, 41.413879%, 47.567749%)" stop-opacity="1"/>
<stop offset="0.703125" stop-color="rgb(0%, 41.696167%, 47.853088%)" stop-opacity="1"/>
<stop offset="0.710937" stop-color="rgb(0%, 41.978455%, 48.136902%)" stop-opacity="1"/>
<stop offset="0.71875" stop-color="rgb(0%, 42.259216%, 48.422241%)" stop-opacity="1"/>
<stop offset="0.726562" stop-color="rgb(0%, 42.541504%, 48.707581%)" stop-opacity="1"/>
<stop offset="0.734375" stop-color="rgb(0%, 42.823792%, 48.99292%)" stop-opacity="1"/>
<stop offset="0.742187" stop-color="rgb(0%, 43.104553%, 49.276733%)" stop-opacity="1"/>
<stop offset="0.75" stop-color="rgb(0%, 43.386841%, 49.562073%)" stop-opacity="1"/>
<stop offset="0.757812" stop-color="rgb(0%, 43.669128%, 49.847412%)" stop-opacity="1"/>
<stop offset="0.765625" stop-color="rgb(0%, 43.951416%, 50.131226%)" stop-opacity="1"/>
<stop offset="0.773438" stop-color="rgb(0%, 44.232178%, 50.416565%)" stop-opacity="1"/>
<stop offset="0.78125" stop-color="rgb(0%, 44.514465%, 50.701904%)" stop-opacity="1"/>
<stop offset="0.789062" stop-color="rgb(0%, 44.796753%, 50.987244%)" stop-opacity="1"/>
<stop offset="0.796875" stop-color="rgb(0%, 45.079041%, 51.271057%)" stop-opacity="1"/>
<stop offset="0.804688" stop-color="rgb(0%, 45.359802%, 51.556396%)" stop-opacity="1"/>
<stop offset="0.8125" stop-color="rgb(0%, 45.64209%, 51.841736%)" stop-opacity="1"/>
<stop offset="0.820312" stop-color="rgb(0%, 45.924377%, 52.127075%)" stop-opacity="1"/>
<stop offset="0.828125" stop-color="rgb(0%, 46.205139%, 52.410889%)" stop-opacity="1"/>
<stop offset="0.835938" stop-color="rgb(0%, 46.487427%, 52.696228%)" stop-opacity="1"/>
<stop offset="0.84375" stop-color="rgb(0%, 46.769714%, 52.981567%)" stop-opacity="1"/>
<stop offset="0.851562" stop-color="rgb(0%, 47.052002%, 53.265381%)" stop-opacity="1"/>
<stop offset="0.859375" stop-color="rgb(0%, 47.332764%, 53.55072%)" stop-opacity="1"/>
<stop offset="0.867188" stop-color="rgb(0%, 47.615051%, 53.83606%)" stop-opacity="1"/>
<stop offset="0.875" stop-color="rgb(0%, 47.897339%, 54.121399%)" stop-opacity="1"/>
<stop offset="0.882812" stop-color="rgb(0%, 48.178101%, 54.405212%)" stop-opacity="1"/>
<stop offset="0.890625" stop-color="rgb(0%, 48.460388%, 54.690552%)" stop-opacity="1"/>
<stop offset="0.898438" stop-color="rgb(0%, 48.742676%, 54.975891%)" stop-opacity="1"/>
<stop offset="0.90625" stop-color="rgb(0%, 49.024963%, 55.26123%)" stop-opacity="1"/>
<stop offset="0.914062" stop-color="rgb(0%, 49.305725%, 55.545044%)" stop-opacity="1"/>
<stop offset="0.921875" stop-color="rgb(0%, 49.588013%, 55.830383%)" stop-opacity="1"/>
<stop offset="0.929688" stop-color="rgb(0%, 49.8703%, 56.115723%)" stop-opacity="1"/>
<stop offset="0.9375" stop-color="rgb(0%, 50.152588%, 56.401062%)" stop-opacity="1"/>
<stop offset="0.945312" stop-color="rgb(0%, 50.43335%, 56.684875%)" stop-opacity="1"/>
<stop offset="0.953125" stop-color="rgb(0%, 50.715637%, 56.970215%)" stop-opacity="1"/>
<stop offset="0.960938" stop-color="rgb(0%, 50.997925%, 57.255554%)" stop-opacity="1"/>
<stop offset="0.96875" stop-color="rgb(0%, 51.278687%, 57.539368%)" stop-opacity="1"/>
<stop offset="0.976562" stop-color="rgb(0%, 51.560974%, 57.824707%)" stop-opacity="1"/>
<stop offset="0.984375" stop-color="rgb(0%, 51.843262%, 58.110046%)" stop-opacity="1"/>
<stop offset="0.992188" stop-color="rgb(0%, 52.125549%, 58.395386%)" stop-opacity="1"/>
<stop offset="1" stop-color="rgb(0%, 52.406311%, 58.679199%)" stop-opacity="1"/>
</linearGradient>
<clipPath id="clip-2">
<path clip-rule="nonzero" d="M 852 697 L 3021 697 L 3021 3176 L 852 3176 Z M 852 697 "/>
</clipPath>
<clipPath id="clip-3">
<path clip-rule="evenodd" d="M 2540.671875 1241.390625 C 2540.808594 1242.398438 2540.910156 1243.398438 2540.988281 1244.421875 L 2541.011719 1244.550781 L 2541.019531 1244.960938 L 2541.039062 1245.238281 L 2541.039062 1245.378906 L 2541.058594 1245.53125 C 2542.960938 1265.03125 2543.960938 1284.789062 2543.960938 1304.769531 C 2543.960938 1639.851562 2271.359375 1912.449219 1936.289062 1912.449219 C 1601.210938 1912.449219 1328.628906 1639.839844 1328.628906 1304.769531 C 1328.628906 1282.761719 1329.839844 1261.039062 1332.140625 1239.640625 L 1332.148438 1239.550781 L 1332.148438 1239.46875 L 1332.160156 1239.390625 L 1332.171875 1239.320312 L 1332.171875 1239.269531 L 1332.179688 1239.25 L 1332.179688 1239.171875 L 1332.191406 1239.101562 L 1332.191406 1239.019531 L 1332.210938 1238.949219 L 1332.210938 1238.800781 L 1332.21875 1238.71875 L 1332.230469 1238.640625 L 1332.238281 1238.578125 L 1332.238281 1238.5 L 1332.25 1238.429688 L 1332.261719 1238.351562 L 1332.269531 1238.28125 L 1332.28125 1238.199219 L 1332.289062 1238.128906 L 1332.289062 1238.050781 L 1332.308594 1237.96875 L 1332.308594 1237.910156 L 1332.320312 1237.851562 L 1332.320312 1237.839844 L 1332.328125 1237.761719 L 1332.339844 1237.679688 L 1332.351562 1237.609375 L 1332.359375 1237.53125 L 1332.371094 1237.460938 L 1332.378906 1237.378906 L 1332.390625 1237.308594 L 1332.398438 1237.238281 L 1332.410156 1237.171875 C 1366.148438 933.800781 1624.070312 697.128906 1936.289062 697.128906 C 2249.699219 697.128906 2508.421875 935.589844 2540.570312 1240.609375 L 2540.570312 1240.691406 L 2540.589844 1240.738281 L 2540.671875 1241.289062 Z M 2387.710938 1296.269531 C 2383.390625 1295.78125 2379.101562 1295.261719 2374.78125 1294.730469 L 2374.101562 1294.648438 L 2368.339844 1293.921875 L 2366.101562 1293.621094 L 2361.289062 1292.988281 L 2360.558594 1292.910156 L 2355.070312 1292.160156 L 2354.769531 1292.109375 L 2348.921875 1291.28125 L 2347.378906 1291.058594 L 2346.691406 1290.960938 L 2339.78125 1289.921875 L 2339.71875 1289.921875 L 2332.890625 1288.839844 L 2332.078125 1288.71875 L 2326.011719 1287.71875 L 2325.539062 1287.640625 C 2321.441406 1286.960938 2317.339844 1286.230469 2313.25 1285.488281 L 2311.46875 1285.148438 L 2307.039062 1284.328125 L 2304.398438 1283.820312 L 2299.300781 1282.820312 L 2297.898438 1282.539062 L 2292.289062 1281.378906 L 2291.339844 1281.171875 L 2285.410156 1279.898438 L 2284.46875 1279.699219 L 2278.648438 1278.390625 L 2278.589844 1278.371094 L 2272.03125 1276.820312 L 2271.921875 1276.789062 L 2265.300781 1275.160156 L 2264.691406 1275.011719 L 2258.699219 1273.449219 L 2258.398438 1273.359375 L 2253.96875 1272.171875 L 2251.511719 1271.488281 L 2247.648438 1270.398438 L 2244.421875 1269.46875 L 2240.609375 1268.339844 L 2237.960938 1267.53125 L 2233.699219 1266.210938 L 2231.261719 1265.441406 L 2226.960938 1264.050781 L 2224.761719 1263.308594 L 2220.308594 1261.800781 L 2217.648438 1260.851562 L 2214 1259.570312 L 2210.359375 1258.230469 L 2207.519531 1257.171875 L 2207.28125 1257.078125 L 2201.039062 1254.671875 L 2200.609375 1254.488281 L 2194.851562 1252.160156 L 2194.539062 1252.03125 L 2190.851562 1250.460938 L 2188.019531 1249.25 L 2184.410156 1247.671875 L 2181.789062 1246.480469 L 2177.988281 1244.730469 L 2175.230469 1243.429688 L 2172.078125 1241.921875 L 2168.519531 1240.160156 L 2165.78125 1238.769531 L 2162.859375 1237.269531 L 2159.179688 1235.339844 L 2156.480469 1233.871094 L 2153.410156 1232.179688 L 2149.839844 1230.160156 L 2147.101562 1228.601562 C 2145.191406 1227.480469 2143.28125 1226.339844 2141.390625 1225.179688 L 2141.121094 1225.019531 L 2139.300781 1223.890625 L 2135.398438 1221.449219 L 2132.660156 1219.671875 L 2129.449219 1217.570312 L 2126.75 1215.738281 L 2123.46875 1213.46875 L 2121.160156 1211.839844 L 2117.609375 1209.289062 L 2115.25 1207.539062 L 2112.039062 1205.121094 L 2109.421875 1203.109375 L 2106.441406 1200.738281 L 2103.808594 1198.628906 L 2100.96875 1196.28125 L 2098.210938 1193.980469 C 2096.96875 1192.910156 2095.730469 1191.820312 2094.488281 1190.738281 L 2093.011719 1189.441406 C 2091.28125 1187.910156 2089.578125 1186.359375 2087.890625 1184.800781 L 2087.609375 1184.53125 L 2087.488281 1184.421875 L 2086 1182.988281 L 2082.289062 1179.460938 L 2080.011719 1177.179688 L 2077.230469 1174.410156 L 2074.609375 1171.691406 L 2072.03125 1168.988281 L 2069.730469 1166.488281 L 2066.890625 1163.359375 L 2064.71875 1160.921875 L 2061.929688 1157.691406 L 2059.679688 1155.019531 L 2057.160156 1151.980469 L 2054.890625 1149.171875 L 2052 1145.511719 L 2050.238281 1143.238281 L 2047.410156 1139.441406 L 2045.421875 1136.761719 C 2043.921875 1134.71875 2042.441406 1132.628906 2040.980469 1130.539062 L 2033.800781 1134.980469 L 2033.179688 1135.339844 L 2031.808594 1136.179688 L 2025.839844 1139.769531 L 2022.429688 1141.761719 L 2018.308594 1144.171875 L 2014.730469 1146.230469 L 2009.859375 1148.988281 L 2007.691406 1150.210938 L 2001.710938 1153.519531 L 1999.421875 1154.78125 L 1993.898438 1157.75 L 1990.378906 1159.628906 L 1986.398438 1161.730469 L 1981.929688 1164.039062 L 1977.929688 1166.101562 L 1973.910156 1168.140625 L 1968.988281 1170.601562 L 1965.621094 1172.28125 L 1959.488281 1175.25 L 1957.230469 1176.351562 L 1951.199219 1179.210938 L 1948.75 1180.371094 L 1947.890625 1180.789062 C 1945.179688 1182.050781 1942.449219 1183.308594 1939.71875 1184.550781 L 1939.511719 1184.648438 L 1931.050781 1188.460938 L 1930.578125 1188.679688 L 1922.53125 1192.21875 L 1921.328125 1192.738281 L 1917.71875 1194.28125 L 1913.101562 1196.261719 L 1907.730469 1198.519531 L 1904.5 1199.871094 L 1899.078125 1202.078125 L 1894.820312 1203.828125 L 1889.929688 1205.78125 L 1885.660156 1207.46875 L 1881.398438 1209.140625 L 1875.910156 1211.261719 L 1871.839844 1212.820312 L 1866.53125 1214.808594 L 1862.109375 1216.449219 L 1857.941406 1217.980469 L 1852.609375 1219.921875 L 1847.351562 1221.789062 L 1843.25 1223.25 L 1838.398438 1224.929688 L 1833.289062 1226.699219 L 1832.988281 1226.808594 L 1824.128906 1229.789062 L 1823.671875 1229.949219 L 1814.289062 1233.03125 L 1813.980469 1233.128906 L 1813.75 1233.199219 L 1804.058594 1236.300781 L 1803.761719 1236.390625 L 1795.339844 1239.019531 L 1794.730469 1239.199219 L 1789.558594 1240.769531 L 1784.410156 1242.328125 L 1780.210938 1243.570312 L 1774.328125 1245.289062 L 1769.558594 1246.660156 L 1764.75 1248.03125 L 1759.328125 1249.550781 L 1753.820312 1251.058594 L 1750.058594 1252.089844 L 1742.980469 1253.988281 L 1739.941406 1254.789062 L 1733.109375 1256.558594 L 1729.121094 1257.578125 L 1722.101562 1259.351562 L 1719.109375 1260.089844 L 1712.761719 1261.628906 L 1708.199219 1262.730469 L 1707.589844 1262.871094 L 1698.371094 1265.03125 L 1697.628906 1265.199219 L 1687.628906 1267.460938 L 1687.570312 1267.46875 L 1684.910156 1268.058594 L 1676.730469 1269.839844 L 1676.5 1269.898438 L 1666.519531 1271.988281 L 1663.351562 1272.640625 L 1655.480469 1274.230469 L 1653.480469 1274.621094 L 1644.769531 1276.308594 L 1642.171875 1276.800781 L 1634.261719 1278.28125 L 1631.371094 1278.808594 L 1623.511719 1280.210938 L 1620.289062 1280.769531 L 1613.089844 1282 L 1609.101562 1282.660156 L 1602.308594 1283.769531 L 1598.589844 1284.359375 L 1590.46875 1285.621094 L 1588.25 1285.960938 L 1578 1287.460938 L 1577.621094 1287.519531 L 1567.878906 1288.871094 L 1566.570312 1289.050781 L 1565.558594 1289.191406 L 1555.449219 1290.511719 L 1555.269531 1290.53125 C 1548.058594 1291.449219 1540.839844 1292.300781 1533.609375 1293.109375 L 1531.71875 1293.320312 C 1525.109375 1294.050781 1518.480469 1294.730469 1511.859375 1295.371094 L 1508.921875 1295.640625 L 1500.519531 1296.398438 L 1498.339844 1296.589844 L 1490.210938 1297.269531 L 1486.921875 1297.519531 L 1478.851562 1298.128906 L 1475.910156 1298.328125 L 1468.75 1298.808594 L 1465.050781 1299.039062 L 1456.429688 1299.539062 L 1454.578125 1299.648438 L 1445.640625 1300.101562 L 1443.5 1300.191406 L 1441.910156 1300.269531 C 1441.890625 1301.78125 1441.851562 1303.269531 1441.851562 1304.769531 C 1441.851562 1577.421875 1663.660156 1799.238281 1936.289062 1799.238281 C 2208.921875 1799.238281 2430.75 1577.421875 2430.75 1304.769531 C 2430.75 1303.421875 2430.710938 1302.078125 2430.691406 1300.730469 L 2424.960938 1300.179688 L 2423.640625 1300.058594 L 2417.160156 1299.421875 L 2416.609375 1299.359375 L 2409.570312 1298.648438 L 2409.359375 1298.628906 L 2402.539062 1297.910156 L 2401.558594 1297.808594 L 2395.511719 1297.148438 L 2393.769531 1296.949219 L 2388.5 1296.359375 Z M 2963.53125 3175.851562 C 2963.429688 3175.851562 2963.289062 3175.851562 2963.140625 3175.851562 L 2434.28125 3175.851562 L 2434.28125 2683.761719 C 2434.28125 2668.519531 2421.941406 2656.199219 2406.699219 2656.199219 C 2391.449219 2656.199219 2379.140625 2668.519531 2379.140625 2683.761719 L 2379.140625 3175.851562 L 1493.441406 3175.851562 L 1493.441406 2683.761719 C 1493.441406 2668.519531 1481.109375 2656.199219 1465.871094 2656.199219 C 1450.621094 2656.199219 1438.300781 2668.519531 1438.300781 2683.761719 L 1438.300781 3175.851562 L 909.445312 3175.851562 C 878.164062 3175.851562 852.828125 3150.511719 852.828125 3119.230469 C 852.828125 2521.800781 1338.871094 2035.78125 1936.289062 2035.78125 C 2531.390625 2035.78125 3016.011719 2518.078125 3019.710938 3112.339844 C 3019.988281 3114.578125 3020.121094 3116.890625 3020.121094 3119.230469 C 3020.140625 3150.511719 2994.789062 3175.851562 2963.53125 3175.851562 "/>
</clipPath>
<linearGradient id="linear-pattern-1" gradientUnits="userSpaceOnUse" x1="0" y1="0" x2="1.000009" y2="0" gradientTransform="matrix(2167.29, 0, 0, 2167.29, 852.83, 1936.49)">
<stop offset="0" stop-color="rgb(0%, 16.470337%, 22.3526%)" stop-opacity="1"/>
<stop offset="0.0078125" stop-color="rgb(0%, 16.610718%, 22.494507%)" stop-opacity="1"/>
<stop offset="0.015625" stop-color="rgb(0%, 16.891479%, 22.77832%)" stop-opacity="1"/>
<stop offset="0.0234375" stop-color="rgb(0%, 17.173767%, 23.06366%)" stop-opacity="1"/>
<stop offset="0.03125" stop-color="rgb(0%, 17.456055%, 23.348999%)" stop-opacity="1"/>
<stop offset="0.0390625" stop-color="rgb(0%, 17.738342%, 23.634338%)" stop-opacity="1"/>
<stop offset="0.046875" stop-color="rgb(0%, 18.019104%, 23.918152%)" stop-opacity="1"/>
<stop offset="0.0546875" stop-color="rgb(0%, 18.301392%, 24.203491%)" stop-opacity="1"/>
<stop offset="0.0625" stop-color="rgb(0%, 18.583679%, 24.488831%)" stop-opacity="1"/>
<stop offset="0.0703125" stop-color="rgb(0%, 18.864441%, 24.77417%)" stop-opacity="1"/>
<stop offset="0.078125" stop-color="rgb(0%, 19.146729%, 25.057983%)" stop-opacity="1"/>
<stop offset="0.0859375" stop-color="rgb(0%, 19.429016%, 25.343323%)" stop-opacity="1"/>
<stop offset="0.09375" stop-color="rgb(0%, 19.711304%, 25.628662%)" stop-opacity="1"/>
<stop offset="0.101562" stop-color="rgb(0%, 19.992065%, 25.912476%)" stop-opacity="1"/>
<stop offset="0.109375" stop-color="rgb(0%, 20.274353%, 26.197815%)" stop-opacity="1"/>
<stop offset="0.117188" stop-color="rgb(0%, 20.556641%, 26.483154%)" stop-opacity="1"/>
<stop offset="0.125" stop-color="rgb(0%, 20.838928%, 26.768494%)" stop-opacity="1"/>
<stop offset="0.132812" stop-color="rgb(0%, 21.11969%, 27.052307%)" stop-opacity="1"/>
<stop offset="0.140625" stop-color="rgb(0%, 21.401978%, 27.337646%)" stop-opacity="1"/>
<stop offset="0.148437" stop-color="rgb(0%, 21.684265%, 27.622986%)" stop-opacity="1"/>
<stop offset="0.15625" stop-color="rgb(0%, 21.965027%, 27.908325%)" stop-opacity="1"/>
<stop offset="0.164063" stop-color="rgb(0%, 22.247314%, 28.192139%)" stop-opacity="1"/>
<stop offset="0.171875" stop-color="rgb(0%, 22.529602%, 28.477478%)" stop-opacity="1"/>
<stop offset="0.179688" stop-color="rgb(0%, 22.81189%, 28.762817%)" stop-opacity="1"/>
<stop offset="0.1875" stop-color="rgb(0%, 23.092651%, 29.048157%)" stop-opacity="1"/>
<stop offset="0.195312" stop-color="rgb(0%, 23.374939%, 29.33197%)" stop-opacity="1"/>
<stop offset="0.203125" stop-color="rgb(0%, 23.657227%, 29.61731%)" stop-opacity="1"/>
<stop offset="0.210937" stop-color="rgb(0%, 23.937988%, 29.902649%)" stop-opacity="1"/>
<stop offset="0.21875" stop-color="rgb(0%, 24.220276%, 30.186462%)" stop-opacity="1"/>
<stop offset="0.226563" stop-color="rgb(0%, 24.502563%, 30.471802%)" stop-opacity="1"/>
<stop offset="0.234375" stop-color="rgb(0%, 24.784851%, 30.757141%)" stop-opacity="1"/>
<stop offset="0.242188" stop-color="rgb(0%, 25.065613%, 31.04248%)" stop-opacity="1"/>
<stop offset="0.25" stop-color="rgb(0%, 25.3479%, 31.326294%)" stop-opacity="1"/>
<stop offset="0.257812" stop-color="rgb(0%, 25.630188%, 31.611633%)" stop-opacity="1"/>
<stop offset="0.265625" stop-color="rgb(0%, 25.912476%, 31.896973%)" stop-opacity="1"/>
<stop offset="0.273438" stop-color="rgb(0%, 26.193237%, 32.182312%)" stop-opacity="1"/>
<stop offset="0.28125" stop-color="rgb(0%, 26.475525%, 32.466125%)" stop-opacity="1"/>
<stop offset="0.289062" stop-color="rgb(0%, 26.757812%, 32.751465%)" stop-opacity="1"/>
<stop offset="0.296875" stop-color="rgb(0%, 27.038574%, 33.036804%)" stop-opacity="1"/>
<stop offset="0.304688" stop-color="rgb(0%, 27.320862%, 33.320618%)" stop-opacity="1"/>
<stop offset="0.3125" stop-color="rgb(0%, 27.603149%, 33.605957%)" stop-opacity="1"/>
<stop offset="0.320312" stop-color="rgb(0%, 27.885437%, 33.891296%)" stop-opacity="1"/>
<stop offset="0.328125" stop-color="rgb(0%, 28.166199%, 34.176636%)" stop-opacity="1"/>
<stop offset="0.335938" stop-color="rgb(0%, 28.448486%, 34.460449%)" stop-opacity="1"/>
<stop offset="0.34375" stop-color="rgb(0%, 28.730774%, 34.745789%)" stop-opacity="1"/>
<stop offset="0.351562" stop-color="rgb(0%, 29.011536%, 35.031128%)" stop-opacity="1"/>
<stop offset="0.359375" stop-color="rgb(0%, 29.293823%, 35.316467%)" stop-opacity="1"/>
<stop offset="0.367188" stop-color="rgb(0%, 29.576111%, 35.600281%)" stop-opacity="1"/>
<stop offset="0.375" stop-color="rgb(0%, 29.858398%, 35.88562%)" stop-opacity="1"/>
<stop offset="0.382812" stop-color="rgb(0%, 30.13916%, 36.170959%)" stop-opacity="1"/>
<stop offset="0.390625" stop-color="rgb(0%, 30.421448%, 36.456299%)" stop-opacity="1"/>
<stop offset="0.398438" stop-color="rgb(0%, 30.703735%, 36.740112%)" stop-opacity="1"/>
<stop offset="0.40625" stop-color="rgb(0%, 30.986023%, 37.025452%)" stop-opacity="1"/>
<stop offset="0.414062" stop-color="rgb(0%, 31.266785%, 37.310791%)" stop-opacity="1"/>
<stop offset="0.421875" stop-color="rgb(0%, 31.549072%, 37.594604%)" stop-opacity="1"/>
<stop offset="0.429688" stop-color="rgb(0%, 31.83136%, 37.879944%)" stop-opacity="1"/>
<stop offset="0.4375" stop-color="rgb(0%, 32.112122%, 38.165283%)" stop-opacity="1"/>
<stop offset="0.445312" stop-color="rgb(0%, 32.394409%, 38.450623%)" stop-opacity="1"/>
<stop offset="0.453125" stop-color="rgb(0%, 32.676697%, 38.734436%)" stop-opacity="1"/>
<stop offset="0.460938" stop-color="rgb(0%, 32.958984%, 39.019775%)" stop-opacity="1"/>
<stop offset="0.46875" stop-color="rgb(0%, 33.239746%, 39.305115%)" stop-opacity="1"/>
<stop offset="0.476562" stop-color="rgb(0%, 33.522034%, 39.590454%)" stop-opacity="1"/>
<stop offset="0.484375" stop-color="rgb(0%, 33.804321%, 39.874268%)" stop-opacity="1"/>
<stop offset="0.492188" stop-color="rgb(0%, 34.086609%, 40.159607%)" stop-opacity="1"/>
<stop offset="0.5" stop-color="rgb(0%, 34.367371%, 40.444946%)" stop-opacity="1"/>
<stop offset="0.507812" stop-color="rgb(0%, 34.649658%, 40.72876%)" stop-opacity="1"/>
<stop offset="0.515625" stop-color="rgb(0%, 34.931946%, 41.014099%)" stop-opacity="1"/>
<stop offset="0.523437" stop-color="rgb(0%, 35.212708%, 41.299438%)" stop-opacity="1"/>
<stop offset="0.53125" stop-color="rgb(0%, 35.494995%, 41.584778%)" stop-opacity="1"/>
<stop offset="0.539062" stop-color="rgb(0%, 35.777283%, 41.868591%)" stop-opacity="1"/>
<stop offset="0.546875" stop-color="rgb(0%, 36.05957%, 42.153931%)" stop-opacity="1"/>
<stop offset="0.554687" stop-color="rgb(0%, 36.340332%, 42.43927%)" stop-opacity="1"/>
<stop offset="0.5625" stop-color="rgb(0%, 36.62262%, 42.724609%)" stop-opacity="1"/>
<stop offset="0.570312" stop-color="rgb(0%, 36.904907%, 43.008423%)" stop-opacity="1"/>
<stop offset="0.578125" stop-color="rgb(0%, 37.185669%, 43.293762%)" stop-opacity="1"/>
<stop offset="0.585937" stop-color="rgb(0%, 37.467957%, 43.579102%)" stop-opacity="1"/>
<stop offset="0.59375" stop-color="rgb(0%, 37.750244%, 43.864441%)" stop-opacity="1"/>
<stop offset="0.601562" stop-color="rgb(0%, 38.032532%, 44.148254%)" stop-opacity="1"/>
<stop offset="0.609375" stop-color="rgb(0%, 38.313293%, 44.433594%)" stop-opacity="1"/>
<stop offset="0.617188" stop-color="rgb(0%, 38.595581%, 44.718933%)" stop-opacity="1"/>
<stop offset="0.625" stop-color="rgb(0%, 38.877869%, 45.002747%)" stop-opacity="1"/>
<stop offset="0.632812" stop-color="rgb(0%, 39.160156%, 45.288086%)" stop-opacity="1"/>
<stop offset="0.640625" stop-color="rgb(0%, 39.440918%, 45.573425%)" stop-opacity="1"/>
<stop offset="0.648438" stop-color="rgb(0%, 39.723206%, 45.858765%)" stop-opacity="1"/>
<stop offset="0.65625" stop-color="rgb(0%, 40.005493%, 46.142578%)" stop-opacity="1"/>
<stop offset="0.664063" stop-color="rgb(0%, 40.286255%, 46.427917%)" stop-opacity="1"/>
<stop offset="0.671875" stop-color="rgb(0%, 40.568542%, 46.713257%)" stop-opacity="1"/>
<stop offset="0.679688" stop-color="rgb(0%, 40.85083%, 46.998596%)" stop-opacity="1"/>
<stop offset="0.6875" stop-color="rgb(0%, 41.133118%, 47.28241%)" stop-opacity="1"/>
<stop offset="0.695313" stop-color="rgb(0%, 41.413879%, 47.567749%)" stop-opacity="1"/>
<stop offset="0.703125" stop-color="rgb(0%, 41.696167%, 47.853088%)" stop-opacity="1"/>
<stop offset="0.710938" stop-color="rgb(0%, 41.978455%, 48.138428%)" stop-opacity="1"/>
<stop offset="0.71875" stop-color="rgb(0%, 42.259216%, 48.422241%)" stop-opacity="1"/>
<stop offset="0.726563" stop-color="rgb(0%, 42.541504%, 48.707581%)" stop-opacity="1"/>
<stop offset="0.734375" stop-color="rgb(0%, 42.823792%, 48.99292%)" stop-opacity="1"/>
<stop offset="0.742188" stop-color="rgb(0%, 43.106079%, 49.276733%)" stop-opacity="1"/>
<stop offset="0.75" stop-color="rgb(0%, 43.386841%, 49.562073%)" stop-opacity="1"/>
<stop offset="0.757812" stop-color="rgb(0%, 43.669128%, 49.847412%)" stop-opacity="1"/>
<stop offset="0.765625" stop-color="rgb(0%, 43.951416%, 50.132751%)" stop-opacity="1"/>
<stop offset="0.773437" stop-color="rgb(0%, 44.233704%, 50.416565%)" stop-opacity="1"/>
<stop offset="0.78125" stop-color="rgb(0%, 44.514465%, 50.701904%)" stop-opacity="1"/>
<stop offset="0.789062" stop-color="rgb(0%, 44.796753%, 50.987244%)" stop-opacity="1"/>
<stop offset="0.796875" stop-color="rgb(0%, 45.079041%, 51.272583%)" stop-opacity="1"/>
<stop offset="0.804687" stop-color="rgb(0%, 45.359802%, 51.556396%)" stop-opacity="1"/>
<stop offset="0.8125" stop-color="rgb(0%, 45.64209%, 51.841736%)" stop-opacity="1"/>
<stop offset="0.820312" stop-color="rgb(0%, 45.924377%, 52.127075%)" stop-opacity="1"/>
<stop offset="0.828125" stop-color="rgb(0%, 46.206665%, 52.410889%)" stop-opacity="1"/>
<stop offset="0.835937" stop-color="rgb(0%, 46.487427%, 52.696228%)" stop-opacity="1"/>
<stop offset="0.84375" stop-color="rgb(0%, 46.769714%, 52.981567%)" stop-opacity="1"/>
<stop offset="0.851562" stop-color="rgb(0%, 47.052002%, 53.266907%)" stop-opacity="1"/>
<stop offset="0.859375" stop-color="rgb(0%, 47.332764%, 53.55072%)" stop-opacity="1"/>
<stop offset="0.867188" stop-color="rgb(0%, 47.615051%, 53.83606%)" stop-opacity="1"/>
<stop offset="0.875" stop-color="rgb(0%, 47.897339%, 54.121399%)" stop-opacity="1"/>
<stop offset="0.882812" stop-color="rgb(0%, 48.179626%, 54.406738%)" stop-opacity="1"/>
<stop offset="0.890625" stop-color="rgb(0%, 48.460388%, 54.690552%)" stop-opacity="1"/>
<stop offset="0.898438" stop-color="rgb(0%, 48.742676%, 54.975891%)" stop-opacity="1"/>
<stop offset="0.90625" stop-color="rgb(0%, 49.024963%, 55.26123%)" stop-opacity="1"/>
<stop offset="0.914063" stop-color="rgb(0%, 49.307251%, 55.54657%)" stop-opacity="1"/>
<stop offset="0.921875" stop-color="rgb(0%, 49.588013%, 55.830383%)" stop-opacity="1"/>
<stop offset="0.929688" stop-color="rgb(0%, 49.8703%, 56.115723%)" stop-opacity="1"/>
<stop offset="0.9375" stop-color="rgb(0%, 50.152588%, 56.401062%)" stop-opacity="1"/>
<stop offset="0.945313" stop-color="rgb(0%, 50.43335%, 56.684875%)" stop-opacity="1"/>
<stop offset="0.953125" stop-color="rgb(0%, 50.715637%, 56.970215%)" stop-opacity="1"/>
<stop offset="0.960938" stop-color="rgb(0%, 50.997925%, 57.255554%)" stop-opacity="1"/>
<stop offset="0.96875" stop-color="rgb(0%, 51.280212%, 57.540894%)" stop-opacity="1"/>
<stop offset="0.976563" stop-color="rgb(0%, 51.560974%, 57.824707%)" stop-opacity="1"/>
<stop offset="0.984375" stop-color="rgb(0%, 51.843262%, 58.110046%)" stop-opacity="1"/>
<stop offset="0.992188" stop-color="rgb(0%, 52.125549%, 58.395386%)" stop-opacity="1"/>
<stop offset="1" stop-color="rgb(0%, 52.407837%, 58.680725%)" stop-opacity="1"/>
</linearGradient>
</defs>
<g clip-path="url(#clip-0)">
<g clip-path="url(#clip-1)">
<path fill-rule="nonzero" fill="url(#linear-pattern-0)" d="M 0 0 L 0 3872.96875 L 3872.96875 3872.96875 L 3872.96875 0 Z M 0 0 "/>
</g>
</g>
<path fill-rule="evenodd" fill="rgb(100%, 100%, 100%)" fill-opacity="1" d="M 1033.089844 311.910156 L 2839.878906 311.910156 C 3236.539062 311.910156 3561.058594 636.441406 3561.058594 1033.089844 L 3561.058594 2839.878906 C 3561.058594 3236.539062 3236.539062 3561.058594 2839.878906 3561.058594 L 1033.089844 3561.058594 C 636.4375 3561.058594 311.914062 3236.539062 311.914062 2839.878906 L 311.914062 1033.089844 C 311.914062 636.441406 636.4375 311.910156 1033.089844 311.910156 "/>
<g clip-path="url(#clip-2)">
<g clip-path="url(#clip-3)">
<path fill-rule="nonzero" fill="url(#linear-pattern-1)" d="M 852.828125 697.128906 L 852.828125 3175.851562 L 3020.140625 3175.851562 L 3020.140625 697.128906 Z M 852.828125 697.128906 "/>
</g>
</g>
</svg>
