<?xml version="1.0" encoding="UTF-8"?>
<svg id="Capa_1" data-name="Capa 1" xmlns="http://www.w3.org/2000/svg" viewBox="0 0 24 24">
  <defs>
    <style>
      .cls-1 {
        stroke-width: .75px;
      }

      .cls-1, .cls-2, .cls-3 {
        fill: none;
        stroke: #000;
        stroke-linecap: round;
        stroke-linejoin: round;
      }

      .cls-2 {
        stroke-width: 1.4px;
      }

      .cls-3 {
        stroke-width: 1.7px;
      }
    </style>
  </defs>
  <path class="cls-3" d="M9.06,16.31c.65.25,1.94.26,2.59.02l8.72-2.57c.65-.25,1.05-.7,1.05-1.2v-5.53c0-.49-.4-.95-1.05-1.2l-5.7-2.15c-.65-.25-1.75-.19-2.39.06L3.63,5.82c-.65.25-1.05.7-1.05,1.2v5.53c0,.49.4.95,1.05,1.2l5.43,2.55Z"/>
  <path class="cls-2" d="M10.15,16.58v-7.02"/>
  <polyline class="cls-2" points="2.79 6.17 10.28 9.69 21.32 6.62"/>
  <path class="cls-2" d="M8.25,4.71l7.38,3.22"/>
  <g>
    <line class="cls-1" x1=".87" y1="16.43" x2="10.15" y2="20.49"/>
    <g>
      <line class="cls-1" x1=".87" y1="16.43" x2="2.18" y2="18.61"/>
      <line class="cls-1" x1=".87" y1="16.43" x2="3.37" y2="15.92"/>
    </g>
    <g>
      <line class="cls-1" x1="10.15" y1="20.49" x2="8.83" y2="18.31"/>
      <line class="cls-1" x1="10.15" y1="20.49" x2="7.65" y2="21"/>
    </g>
  </g>
</svg>