<?xml version="1.0" encoding="UTF-8"?>
<svg id="Capa_1" data-name="Capa 1" xmlns="http://www.w3.org/2000/svg" viewBox="0 0 24 24">
  <defs>
    <style>
      .cls-1 {
        stroke-width: .75px;
      }

      .cls-1, .cls-2 {
        fill: none;
        stroke: #000;
        stroke-linecap: round;
        stroke-linejoin: round;
      }

      .cls-2 {
        stroke-width: 1.4px;
      }
    </style>
  </defs>
  <g>
    <path class="cls-2" d="M15.13,15.85c.43.25.97.25,1.4,0l4.91-2.81c.43-.25.7-.71.7-1.21v-5.62c0-.5-.27-.96-.7-1.21l-4.91-2.81c-.43-.25-.97-.25-1.4,0l-4.91,2.81c-.43.25-.7.71-.7,1.21v5.62c0,.5.27.96.7,1.21l4.91,2.81Z"/>
    <path class="cls-2" d="M15.83,16.04v-7.02"/>
    <polyline class="cls-2" points="9.71 5.51 15.83 9.02 21.95 5.51"/>
    <path class="cls-2" d="M12.67,3.59l6.32,3.62"/>
  </g>
  <g>
    <line class="cls-1" x1="4.17" y1="2" x2="4.17" y2="16.04"/>
    <g>
      <line class="cls-1" x1="4.17" y1="2" x2="2.13" y2="4.89"/>
      <line class="cls-1" x1="4.17" y1="2" x2="6.21" y2="4.89"/>
    </g>
    <g>
      <line class="cls-1" x1="4.17" y1="16.04" x2="6.21" y2="13.16"/>
      <line class="cls-1" x1="4.17" y1="16.04" x2="2.13" y2="13.16"/>
    </g>
  </g>
</svg>