<?xml version="1.0" encoding="UTF-8"?>
<svg id="Layer_1" data-name="Layer 1" xmlns="http://www.w3.org/2000/svg" viewBox="0 0 3872.98 3872.98">
  <defs>
    <style>
      .cls-1 {
        fill: #5083c2;
      }

      .cls-2 {
        fill: #dff1f4;
      }

      .cls-3 {
        opacity: .47;
      }

      .cls-4 {
        fill: #a5c9f9;
      }

      .cls-5 {
        fill: #bcd9fb;
      }
    </style>
  </defs>
  <g class="cls-3">
    <path class="cls-2" d="M3039.7,3015.56c-22.44,102.88-80.08,177.89-163.95,229.37-34.57,21.25-73.62,38.49-116.49,52.04-170.12,53.8-400.56,49.54-652.01,6.36-224.85-38.6-466.51-108.3-696.89-195.41-5.86-2.21-11.72-4.43-17.53-6.67-89.05-34.1-175.14-73.69-257.88-118.34-39.49-21.31-78.23-43.76-116.16-67.32-500.43-310.91-860.62-814.26-981.75-1402.38-47.75-231.83-56.38-466.26,16.36-662.97,7.02-18.99,14.8-37.62,23.37-55.87,304.94-649.03,1548.72-582.89,2090.17-1.89,541.45,580.98,1512.85,196.92,1683.01,656.14,170.15,459.22-653.42,848-810.26,1566.94Z"/>
    <path class="cls-2" d="M3527.09,2488.66c-129.58,280.25-93.64,594.1-126.71,679.15-43.02,110.65-301.19,12.29-172.11-374.95,51.71-155.15,136.97-272.81,220.6-358.11,37.96-38.71,100.97,4.7,78.22,53.91Z"/>
  </g>
  <rect class="cls-5" x="1170.24" y="2191.88" width="351.99" height="300.54"/>
  <rect class="cls-4" x="1170.24" y="2492.43" width="351.99" height="1048.71"/>
  <rect class="cls-5" x="726.08" y="1571.73" width="351.99" height="438.68"/>
  <rect class="cls-4" x="726.08" y="2010.41" width="351.99" height="1530.72"/>
  <rect class="cls-5" x="1639.54" y="1504.69" width="351.99" height="707.65"/>
  <rect class="cls-4" x="1639.54" y="2212.34" width="351.99" height="1328.79"/>
  <rect class="cls-5" x="2100.46" y="1219.76" width="351.99" height="913.46"/>
  <rect class="cls-4" x="2100.46" y="2124.84" width="351.99" height="1416.29"/>
  <rect class="cls-5" x="2569.76" y="624.75" width="351.99" height="1274.93"/>
  <rect class="cls-4" x="2569.76" y="1899.68" width="351.99" height="1641.45"/>
  <polygon class="cls-1" points="2978.99 526.16 2898.25 333.29 2669.83 377.21 2686.63 464.57 2786.1 445.44 1999.32 2258.86 1743.56 1619.46 1359.94 2642.47 1112.64 2147.88 514.91 3365.89 594.78 3405.08 1113.39 2348.29 1371.6 2864.72 1746.24 1865.68 1995.99 2490.06 2865.61 485.7 2896.92 560.51 2978.99 526.16"/>
  <path class="cls-4" d="M886.5,991.46c0,189.79-153.85,343.64-343.63,343.64s-343.63-153.85-343.63-343.64,153.85-343.63,343.63-343.63c1.92,0,3.82.02,5.73.05v343.57h337.9Z"/>
  <path class="cls-5" d="M926.59,951.37h-337.9v-343.57c187.13,3.05,337.9,155.72,337.9,343.57Z"/>
</svg>